<?xml version="1.0" encoding="utf-8"?>
<!-- Generator: Adobe Illustrator 21.0.2, SVG Export Plug-In . SVG Version: 6.00 Build 0)  -->
<svg version="1.2" baseProfile="tiny" id="Layer_1" xmlns="http://www.w3.org/2000/svg" xmlns:xlink="http://www.w3.org/1999/xlink"
	 x="0px" y="0px" viewBox="0 0 56.4 26.1" xml:space="preserve">
<g>
	
		<ellipse transform="matrix(1.855707e-03 -1 1 1.855707e-03 19.803 36.5628)" fill="none" stroke="#629A6D" stroke-width="2" stroke-miterlimit="10" cx="28.2" cy="8.4" rx="7.4" ry="7.4"/>
	
		<ellipse transform="matrix(1.855707e-03 -1 1 1.855707e-03 35.3177 59.0361)" fill="none" stroke="#629A6D" stroke-width="2" stroke-miterlimit="10" cx="47.2" cy="11.8" rx="5.8" ry="5.8"/>
	
		<ellipse transform="matrix(1.855707e-03 -1 1 1.855707e-03 -2.5837 20.9232)" fill="none" stroke="#629A6D" stroke-width="2" stroke-miterlimit="10" cx="9.2" cy="11.8" rx="5.8" ry="5.8"/>
	<path fill="none" stroke="#629A6D" stroke-width="2" stroke-miterlimit="10" d="M55.4,24.3c-0.8-3.8-4.2-6.6-8.2-6.6
		c-4,0-7.4,2.8-8.2,6.6L38.8,26c-0.2-5.7-4.9-10.3-10.6-10.3c-5.8,0-10.5,4.5-10.7,10.3l-0.2-1.8c-0.8-3.8-4.2-6.6-8.2-6.6
		c-4,0-7.4,2.8-8.2,6.6"/>
</g>
</svg>
