<?xml version="1.0" encoding="utf-8"?>
<!DOCTYPE svg PUBLIC "-//W3C//DTD SVG 1.1 Tiny//EN" "http://www.w3.org/Graphics/SVG/1.1/DTD/svg11-tiny.dtd">
<svg version="1.1" baseProfile="tiny"
	 xmlns="http://www.w3.org/2000/svg" xmlns:xlink="http://www.w3.org/1999/xlink" x="0px" y="0px" width="18.06px"
	 height="18.061px" viewBox="0 0 18.06 18.061" xml:space="preserve">
<g>
	<path fill="#75986F" d="M9.03,18.061L9.03,18.061c4.987,0,9.03-4.043,9.03-9.03C18.06,4.043,14.017,0,9.03,0
		C4.043,0,0,4.043,0,9.031C0,14.018,4.043,18.061,9.03,18.061"/>
	<path fill="#FFFFFF" d="M11.405,4.523c0.135,0.021,0.27,0.039,0.401,0.068c1.165,0.261,2.028,1.186,2.179,2.369
		c0.112,0.889-0.144,1.675-0.773,2.314c-1.131,1.144-2.274,2.276-3.412,3.413c-0.142,0.143-0.331,0.15-0.459,0.023
		c-0.132-0.131-0.123-0.313,0.029-0.463c1.11-1.111,2.222-2.219,3.331-3.33c0.418-0.418,0.64-0.926,0.649-1.516
		c0.022-1.135-0.837-2.094-1.966-2.203c-0.672-0.065-1.26,0.138-1.741,0.609C8.138,7.286,6.638,8.768,5.14,10.252
		c-0.836,0.829-0.519,2.225,0.59,2.59c0.609,0.199,1.155,0.063,1.613-0.387c0.947-0.928,1.888-1.863,2.833-2.794
		c0.563-0.556,1.127-1.11,1.689-1.669c0.346-0.344,0.377-0.875,0.082-1.248c-0.334-0.42-0.941-0.478-1.352-0.127
		c-0.036,0.031-0.07,0.066-0.105,0.101c-1.107,1.106-2.217,2.214-3.324,3.321c-0.094,0.094-0.196,0.149-0.331,0.112
		c-0.218-0.061-0.3-0.313-0.16-0.489c0.016-0.021,0.035-0.039,0.053-0.058c1.122-1.121,2.242-2.243,3.367-3.361
		c0.783-0.778,2.059-0.562,2.521,0.424c0.283,0.6,0.154,1.294-0.336,1.779c-0.966,0.956-1.934,1.91-2.899,2.865
		c-0.53,0.521-1.059,1.041-1.586,1.566c-0.476,0.471-1.045,0.689-1.715,0.658c-0.966-0.049-1.831-0.813-1.991-1.768
		c-0.014-0.08-0.028-0.158-0.041-0.238V11.2c0.006-0.025,0.015-0.051,0.018-0.076c0.059-0.507,0.269-0.943,0.632-1.302
		c1.52-1.503,3.041-3.004,4.563-4.505c0.347-0.341,0.759-0.574,1.23-0.693c0.172-0.043,0.35-0.066,0.523-0.1H11.405z"/>
</g>
</svg>
