<?xml version="1.0" encoding="utf-8"?>
<!-- Generator: Adobe Illustrator 21.0.2, SVG Export Plug-In . SVG Version: 6.00 Build 0)  -->
<svg version="1.2" baseProfile="tiny" id="Layer_1" xmlns="http://www.w3.org/2000/svg" xmlns:xlink="http://www.w3.org/1999/xlink"
	 x="0px" y="0px" viewBox="0 0 30 30" overflow="scroll" xml:space="preserve">
<g>
	<path fill="#629A6D" d="M4.2,6.3c-0.5,0-1.1,0.1-1.6,0.3C1,7.3,0,8.8,0,10.5c0,2.3,1.9,4.2,4.2,4.2h10L7.1,7.6
		C6.3,6.8,5.3,6.3,4.2,6.3z"/>
	<path fill="#629A6D" d="M27.4,6.7c-1.6-0.7-3.3-0.3-4.5,0.9l-7.1,7.1h10c2.3,0,4.2-1.9,4.2-4.2C30,8.8,29,7.3,27.4,6.7z"/>
	<path fill="#629A6D" d="M23.3,2.6C22.7,1,21.2,0,19.5,0c-2.3,0-4.2,1.9-4.2,4.2v10l7.1-7.1C23.6,5.9,24,4.1,23.3,2.6z"/>
	<path fill="#629A6D" d="M10.5,0C8.8,0,7.3,1,6.7,2.6C6,4.2,6.4,5.9,7.6,7.1l7.1,7.1v-10C14.7,1.9,12.8,0,10.5,0z"/>
	<path fill="#629A6D" d="M6.7,27.4C7.3,29,8.8,30,10.5,30c2.3,0,4.2-1.9,4.2-4.2v-10l-7.1,7.1C6.4,24.1,6,25.9,6.7,27.4z"/>
	<path fill="#629A6D" d="M19.5,30c1.7,0,3.2-1,3.8-2.6c0.7-1.6,0.3-3.3-0.9-4.5l-7.1-7.1v10C15.3,28.1,17.2,30,19.5,30z"/>
	<path fill="#629A6D" d="M30,19.5c0-2.3-1.9-4.2-4.2-4.2h-10l7.1,7.1c1.2,1.2,2.9,1.6,4.5,0.9C29,22.7,30,21.2,30,19.5z"/>
	<path fill="#629A6D" d="M4.2,15.3c-2.3,0-4.2,1.9-4.2,4.2c0,1.7,1,3.2,2.6,3.8c1.6,0.7,3.3,0.3,4.5-0.9l7.1-7.1H4.2z"/>
</g>
</svg>
