<?xml version="1.0" encoding="utf-8"?>
<!-- Generator: Adobe Illustrator 21.0.2, SVG Export Plug-In . SVG Version: 6.00 Build 0)  -->
<svg version="1.2" baseProfile="tiny" id="Layer_1" xmlns="http://www.w3.org/2000/svg" xmlns:xlink="http://www.w3.org/1999/xlink"
	 x="0px" y="0px" viewBox="0 0 157.8 62.2" xml:space="preserve">
<g>
	<path d="M17.7,43.2l-4.1-0.2c-0.2,0-0.8,1.2-1.9,3.5c-1.1,2.3-2,4.6-2.8,6.8c-0.8,2.2-1.2,3.8-1.2,4.7c0,1,0.3,1.4,0.9,1.4
		s1.4-0.6,2.3-1.9c0.1-0.1,0.2-0.2,0.3-0.2s0.1,0.1,0.1,0.3s-0.1,0.5-0.4,1c-0.3,0.5-0.6,1-1,1.5c-0.4,0.5-1,1-1.7,1.4
		c-0.7,0.4-1.4,0.6-2.1,0.6c-1.1,0-1.6-0.7-1.6-2.2c0-1.8,0.9-5,2.8-9.4c1.3-3.1,2.5-5.7,3.7-7.7h-0.4l-3-0.1
		c-1.7,0-3.1,0.2-4.4,0.6c-0.7,0.2-1.2,0.6-1.6,1c-0.4,0.5-0.6,1-0.6,1.7l0.2,1.2c0,0.2-0.1,0.3-0.3,0.3c-0.3,0-0.5-0.2-0.6-0.7
		C0.1,46.5,0,46,0,45.7c0-0.9,0.2-1.7,0.6-2.3c0.4-0.6,1-1.1,1.8-1.5c1.4-0.6,3-0.9,4.7-0.9c1.7,0,3.6,0.1,5.8,0.3
		c2.1,0.2,4.1,0.3,5.9,0.3s2.9-0.3,3.4-0.8c0.1,0.1,0.1,0.3,0.1,0.4c0,0.6-0.4,1.2-1.2,1.5C20.1,43,19.1,43.2,17.7,43.2z"/>
	<path d="M24.7,49.9l1.5,0h0.3c-0.6,0.5-1.4,1.9-2.4,4c-0.9,2.1-1.4,3.7-1.4,4.7c0,0.5,0.2,0.8,0.5,0.8c1.1,0,2.6-1.7,4.3-5
		c0.1-0.1,0.1-0.2,0.2-0.2c0.1,0,0.2,0.2,0.2,0.5c0,0.4-0.1,0.7-0.3,1c-2.4,4-4.4,6.1-6,6.1c-1.1,0-1.6-0.8-1.6-2.4
		c0-1.2,0.2-2.4,0.6-3.6c-2.2,3.9-4.3,5.9-6.2,5.9c-1.3,0-2-0.9-2-2.7c0-1.4,0.3-2.8,0.9-4.2s1.4-2.6,2.6-3.6c1.1-1,2.3-1.5,3.7-1.5
		c0.6,0,1.2,0.1,1.8,0.4c0.5,0.3,0.9,0.7,1.1,1.4c0.2-0.4,0.5-0.8,1-1.2C23.9,50,24.3,49.9,24.7,49.9z M22.3,51.8
		c-0.2-0.6-0.7-0.9-1.4-0.9c-1.3,0-2.5,0.9-3.7,2.7s-1.8,3.4-1.8,4.8c0,0.6,0.2,0.9,0.7,0.9c0.5,0,1.1-0.3,1.8-1
		c0.7-0.6,1.3-1.4,1.8-2.2C20.9,54.1,21.8,52.7,22.3,51.8z"/>
	<path d="M37.7,43.7c-0.7,1.4-1.8,3-3.2,4.8c-1.4,1.8-2.7,3.3-3.9,4.3l-0.5,1.3c-0.2,0.7-0.5,1.5-0.7,2.5c-0.2,1-0.3,1.7-0.3,2.1
		c0,0.6,0.2,0.9,0.6,0.9s0.9-0.2,1.5-0.7c0.6-0.5,1-0.9,1.3-1.3c0.3-0.4,0.6-0.8,1-1.4c0.4-0.6,0.7-1.1,0.9-1.5
		c0.3-0.4,0.4-0.6,0.5-0.6c0.1,0,0.2,0.2,0.2,0.5c0,0.4-0.1,0.7-0.3,1c-1.1,1.8-1.9,3.1-2.6,3.8c-1.3,1.5-2.7,2.2-4.2,2.2
		c-1.1,0-1.6-0.7-1.6-2.2c0-1.5,0.7-4,2-7.7c0.1-0.3,0.3-1,0.7-2c0.4-1,0.7-1.8,0.9-2.3c0.3-0.6,0.6-1.3,1-2.2
		c0.4-0.9,0.8-1.6,1.2-2.2c0.4-0.5,0.8-1.1,1.3-1.7c1-1.1,2-1.7,3.1-1.7s1.7,0.5,1.7,1.5C38.4,42.1,38.2,42.9,37.7,43.7z M37.1,40.5
		h-0.2c-1.2,0-3.1,3.6-5.7,10.7c2.7-3.1,4.5-5.7,5.5-7.7c0.5-1.2,0.8-2,0.8-2.4C37.5,40.7,37.3,40.5,37.1,40.5z"/>
	<path d="M45.5,54c0.1,0,0.2,0.2,0.2,0.6c0,0.4-0.2,0.8-0.5,1.4c-0.3,0.5-0.6,1-0.9,1.5c-0.3,0.5-0.7,1-1.2,1.6
		c-0.5,0.6-1,1.1-1.5,1.5c-1.2,0.9-2.5,1.3-3.7,1.3c-1.2,0-2.2-0.3-3-1c-0.8-0.6-1.1-1.6-1.1-2.9c0-2,0.7-3.8,2.2-5.5
		c1.5-1.7,3.2-2.5,5.1-2.5c0.9,0,1.6,0.2,2.1,0.7c0.5,0.5,0.8,1,0.8,1.7c0,1.1-0.5,2-1.6,2.6c-1,0.7-2.3,1-3.7,1
		c-0.8,0-1.4-0.1-1.8-0.3c-0.4,1-0.6,1.9-0.6,2.6c0,1.6,0.7,2.5,2.1,2.5c0.8,0,1.7-0.3,2.5-1c0.9-0.6,1.6-1.3,2.2-2.1
		c0.6-0.8,1.3-1.9,2.1-3.4C45.4,54,45.5,54,45.5,54z M42.4,51.7c0-0.6-0.3-0.8-0.8-0.8c-0.8,0-1.6,0.5-2.5,1.4
		c-0.9,0.9-1.4,1.7-1.4,2.3c0,0.4,0.4,0.6,1.1,0.6s1.5-0.4,2.3-1.1C41.9,53.3,42.3,52.5,42.4,51.7z"/>
	<path d="M58.1,55.7c-0.7,1.2-1.4,2.2-2,3s-1.3,1.5-2,2.1c-0.8,0.6-1.5,0.9-2.1,0.9c-1.2,0-1.7-0.6-1.7-1.9s0.7-3.8,2.2-7.6
		c0.1-0.2,0.1-0.4,0.1-0.6c0-0.4-0.3-0.6-0.8-0.6s-1,0.2-1.5,0.5c-0.5,0.3-1,0.8-1.4,1.4c-0.4,0.6-0.8,1.2-1.1,1.8
		c-0.3,0.6-0.6,1.3-0.9,2.1c-0.3,0.8-0.5,1.5-0.7,2c-0.2,0.5-0.3,1.1-0.5,1.7c-0.2,0.6-0.3,1-0.3,1h-2.8c0-0.4,0.9-2.8,2.6-7.1
		c0.7-2,1.1-3.4,1.1-4.2c0-0.2,0-0.3-0.1-0.4h1.2c0.7,0,1.1,0.1,1.3,0.2c0.2,0.1,0.3,0.3,0.3,0.6c0,0.2-0.1,0.7-0.3,1.4
		c1.6-1.6,3.3-2.3,4.9-2.3c1.1,0,1.7,0.5,1.7,1.5c0,0.3,0,0.7-0.1,1c-0.1,0.3-0.3,1-0.7,2c-0.9,2.2-1.3,3.6-1.3,4.4
		c0,0.5,0.2,0.7,0.5,0.7c0.3,0,0.6-0.2,1.1-0.5c0.5-0.4,0.8-0.7,1.1-1.1c0.3-0.4,0.6-0.9,1-1.4c0.4-0.6,0.7-1.1,0.9-1.5
		c0.3-0.4,0.4-0.6,0.4-0.6c0.1,0,0.2,0.2,0.2,0.5C58.4,55,58.3,55.4,58.1,55.7z"/>
	<path d="M66.1,44.8c-1,0.7-2,2.4-3.2,5.1h3l0,0c0,0.1-0.1,0.3-0.3,0.5c-0.2,0.2-0.4,0.4-0.6,0.4h-2.5c-1.5,3.8-2.3,6.3-2.3,7.4
		c0,0.7,0.2,1.1,0.7,1.1c0.7,0,1.5-0.6,2.4-1.8c0.2-0.3,0.5-0.7,0.8-1.3c0.9-1.4,1.4-2.2,1.4-2.2c0.1,0,0.2,0.2,0.2,0.5
		c0,0.7-0.8,2.2-2.4,4.3c-0.5,0.7-1.2,1.4-1.9,2c-0.7,0.6-1.4,0.9-2,0.9c-1.1,0-1.7-0.8-1.7-2.3c0-1.3,0.3-2.8,0.9-4.5v0
		c-0.4,0.7-0.7,1.2-1,1.5c-0.3,0.3-0.4,0.5-0.5,0.5c-0.1,0-0.1-0.1-0.1-0.4c0-0.2,0.1-0.6,0.4-1.2c0.3-0.5,0.6-1.3,1.1-2.1
		c0.5-0.9,0.8-1.7,1.1-2.4h-2c-0.1,0-0.1,0-0.1-0.1c0-0.1,0.1-0.2,0.2-0.5c0.1-0.2,0.3-0.3,0.3-0.3h2.2c1.4-3.4,2.8-5.1,4.3-5.1
		C65.6,44.8,66,44.8,66.1,44.8z"/>
	<path d="M100.4,49.9l1.5,0h0.3c-0.6,0.5-1.4,1.9-2.4,4c-0.9,2.1-1.4,3.7-1.4,4.7c0,0.5,0.2,0.8,0.5,0.8c1.1,0,2.6-1.7,4.3-5
		c0.1-0.1,0.1-0.2,0.2-0.2c0.1,0,0.2,0.2,0.2,0.5c0,0.4-0.1,0.7-0.3,1c-2.4,4-4.4,6.1-6,6.1c-1.1,0-1.6-0.8-1.6-2.4
		c0-1.2,0.2-2.4,0.6-3.6c-2.2,3.9-4.3,5.9-6.2,5.9c-1.3,0-2-0.9-2-2.7c0-1.4,0.3-2.8,0.9-4.2s1.4-2.6,2.6-3.6c1.1-1,2.3-1.5,3.7-1.5
		c0.6,0,1.2,0.1,1.8,0.4c0.5,0.3,0.9,0.7,1.1,1.4c0.2-0.4,0.5-0.8,1-1.2C99.6,50,100,49.9,100.4,49.9z M98,51.8
		c-0.2-0.6-0.7-0.9-1.4-0.9c-1.3,0-2.5,0.9-3.7,2.7S91,56.9,91,58.3c0,0.6,0.2,0.9,0.7,0.9c0.5,0,1.1-0.3,1.8-1
		c0.7-0.6,1.3-1.4,1.8-2.2C96.6,54.1,97.5,52.7,98,51.8z"/>
	<path d="M113.2,50.5l1.6,0c0.3,0,0.5,0,0.6,0c-0.7,0.4-1.6,2.1-2.6,4.9c-0.6,1.5-0.8,2.6-0.8,3.4c0,0.8,0.3,1.2,0.9,1.2
		c0.7,0,1.4-0.4,2.1-1.2c0.7-0.8,1.2-1.5,1.6-2.3c0.4-0.7,0.6-1.4,0.9-2c-0.1-0.5-0.1-1.1-0.1-1.8s0.2-1.4,0.5-2
		c0.4-0.7,0.8-1,1.4-1c0.6,0,0.9,0.4,0.9,1.3c0,0.8-0.1,1.4-0.3,1.8c-0.2,0.4-0.4,0.9-0.6,1.2c-0.2,0.4-0.3,0.6-0.4,0.8
		c0,0.6,0.2,1,0.5,1.4c0.3,0.4,0.6,0.5,1,0.5c0.9,0,1.8-0.8,2.8-2.5c0.1-0.1,0.1-0.1,0.2-0.1c0,0,0.1,0.1,0.1,0.4
		c0,1.1-0.4,1.9-1.1,2.4c-0.7,0.6-1.4,0.8-2.2,0.8c-1.1,0-1.7-0.5-2.1-1.6l-0.1-0.3c-1.2,2.1-2.3,3.6-3.2,4.5
		c-0.9,0.9-2,1.3-3.3,1.3c-1.6,0-2.5-0.9-2.5-2.8c0-0.3,0-0.7,0.1-1.1c-1.9,2.6-3.7,3.9-5.4,3.9c-0.5,0-0.9-0.2-1.2-0.6
		c-0.3-0.4-0.5-1-0.5-1.8s0.3-2,0.8-3.6c1-3.1,2.2-4.9,3.4-5.5c0.6-0.3,1.4-0.4,2.5-0.4c0.1,0,0.1,0,0.1,0.1c0-0.1-0.1,0-0.2,0.2
		c-0.7,1.1-1.5,2.4-2.3,4.2c-0.2,0.4-0.4,1.1-0.7,2c-0.3,1-0.5,1.8-0.5,2.4c0,0.7,0.2,1,0.7,1c1,0,2.4-1.8,4.2-5.3
		c0.8-1.5,1.2-2.3,1.2-2.3C111.8,51.1,112.5,50.5,113.2,50.5z"/>
	<path d="M134.1,49.9l1.5,0h0.3c-0.6,0.5-1.4,1.9-2.4,4c-0.9,2.1-1.4,3.7-1.4,4.7c0,0.5,0.2,0.8,0.5,0.8c1.1,0,2.6-1.7,4.3-5
		c0.1-0.1,0.1-0.2,0.2-0.2c0.1,0,0.2,0.2,0.2,0.5c0,0.4-0.1,0.7-0.3,1c-2.4,4-4.4,6.1-6,6.1c-1.1,0-1.6-0.8-1.6-2.4
		c0-1.2,0.2-2.4,0.6-3.6c-2.2,3.9-4.3,5.9-6.2,5.9c-1.3,0-2-0.9-2-2.7c0-1.4,0.3-2.8,0.9-4.2s1.4-2.6,2.6-3.6c1.1-1,2.3-1.5,3.7-1.5
		c0.6,0,1.2,0.1,1.8,0.4c0.5,0.3,0.9,0.7,1.1,1.4c0.2-0.4,0.5-0.8,1-1.2C133.3,50,133.7,49.9,134.1,49.9z M131.6,51.8
		c-0.2-0.6-0.7-0.9-1.4-0.9c-1.3,0-2.5,0.9-3.7,2.7s-1.8,3.4-1.8,4.8c0,0.6,0.2,0.9,0.7,0.9c0.5,0,1.1-0.3,1.8-1
		c0.7-0.6,1.3-1.4,1.8-2.2C130.2,54.1,131.1,52.7,131.6,51.8z"/>
	<path d="M149.8,55.7c-0.7,1.2-1.4,2.2-2,3s-1.3,1.5-2,2.1c-0.8,0.6-1.5,0.9-2.1,0.9c-1.2,0-1.7-0.6-1.7-1.9s0.7-3.8,2.2-7.6
		c0.1-0.2,0.1-0.4,0.1-0.6c0-0.4-0.3-0.6-0.8-0.6s-1,0.2-1.5,0.5c-0.5,0.3-1,0.8-1.4,1.4c-0.4,0.6-0.8,1.2-1.1,1.8
		c-0.3,0.6-0.6,1.3-0.9,2.1c-0.3,0.8-0.5,1.5-0.7,2c-0.2,0.5-0.3,1.1-0.5,1.7c-0.2,0.6-0.3,1-0.3,1h-2.8c0-0.4,0.9-2.8,2.6-7.1
		c0.7-2,1.1-3.4,1.1-4.2c0-0.2,0-0.3-0.1-0.4h1.2c0.7,0,1.1,0.1,1.3,0.2c0.2,0.1,0.3,0.3,0.3,0.6c0,0.2-0.1,0.7-0.3,1.4
		c1.6-1.6,3.3-2.3,4.9-2.3c1.1,0,1.7,0.5,1.7,1.5c0,0.3,0,0.7-0.1,1c-0.1,0.3-0.3,1-0.7,2c-0.9,2.2-1.3,3.6-1.3,4.4
		c0,0.5,0.2,0.7,0.5,0.7c0.3,0,0.6-0.2,1.1-0.5c0.5-0.4,0.8-0.7,1.1-1.1c0.3-0.4,0.6-0.9,1-1.4c0.4-0.6,0.7-1.1,0.9-1.5
		c0.3-0.4,0.4-0.6,0.4-0.6c0.1,0,0.2,0.2,0.2,0.5C150.1,55,150,55.4,149.8,55.7z"/>
	<path d="M157.8,44.8c-1,0.7-2,2.4-3.2,5.1h3l0,0c0,0.1-0.1,0.3-0.3,0.5c-0.2,0.2-0.4,0.4-0.6,0.4h-2.5c-1.5,3.8-2.3,6.3-2.3,7.4
		c0,0.7,0.2,1.1,0.7,1.1c0.7,0,1.5-0.6,2.4-1.8c0.2-0.3,0.5-0.7,0.8-1.3c0.9-1.4,1.4-2.2,1.4-2.2c0.1,0,0.2,0.2,0.2,0.5
		c0,0.7-0.8,2.2-2.4,4.3c-0.5,0.7-1.2,1.4-1.9,2c-0.7,0.6-1.4,0.9-2,0.9c-1.1,0-1.7-0.8-1.7-2.3c0-1.3,0.3-2.8,0.9-4.5v0
		c-0.4,0.7-0.7,1.2-1,1.5c-0.3,0.3-0.4,0.5-0.5,0.5c-0.1,0-0.1-0.1-0.1-0.4c0-0.2,0.1-0.6,0.4-1.2c0.3-0.5,0.6-1.3,1.1-2.1
		c0.5-0.9,0.8-1.7,1.1-2.4h-2c-0.1,0-0.1,0-0.1-0.1c0-0.1,0.1-0.2,0.2-0.5c0.1-0.2,0.3-0.3,0.3-0.3h2.2c1.4-3.4,2.8-5.1,4.3-5.1
		C157.2,44.8,157.7,44.8,157.8,44.8z"/>
	<g>
		<path fill="#629A6D" d="M62.3,8.3c-0.7,0-1.4,0.1-2.1,0.4c-2.1,0.9-3.4,2.8-3.4,5c0,3,2.4,5.5,5.5,5.5h13.2l-9.3-9.3
			C65,8.9,63.7,8.3,62.3,8.3z"/>
		<path fill="#629A6D" d="M92.8,8.7c-2.1-0.9-4.4-0.4-5.9,1.2l-9.3,9.3h13.2c3,0,5.5-2.4,5.5-5.5C96.1,11.5,94.8,9.6,92.8,8.7z"/>
		<path fill="#629A6D" d="M87.4,3.4c-0.9-2.1-2.8-3.4-5-3.4c-3,0-5.5,2.4-5.5,5.5v13.2l9.3-9.3C87.8,7.7,88.3,5.4,87.4,3.4z"/>
		<path fill="#629A6D" d="M70.6,0c-2.2,0-4.2,1.3-5,3.4c-0.9,2.1-0.4,4.4,1.2,5.9l9.3,9.3V5.5C76,2.4,73.6,0,70.6,0z"/>
		<path fill="#629A6D" d="M65.5,36c0.9,2.1,2.8,3.4,5,3.4c3,0,5.5-2.4,5.5-5.5V20.7L66.7,30C65.1,31.6,64.7,33.9,65.5,36z"/>
		<path fill="#629A6D" d="M82.4,39.3c2.2,0,4.2-1.3,5-3.4c0.9-2.1,0.4-4.4-1.2-5.9l-9.3-9.3v13.2C76.9,36.9,79.3,39.3,82.4,39.3z"/>
		<path fill="#629A6D" d="M96.1,25.6c0-3-2.4-5.5-5.5-5.5H77.5l9.3,9.3c1.6,1.6,3.9,2,5.9,1.2C94.8,29.7,96.1,27.8,96.1,25.6z"/>
		<path fill="#629A6D" d="M62.2,20.1c-3,0-5.5,2.4-5.5,5.5c0,2.2,1.3,4.2,3.4,5c2.1,0.9,4.4,0.4,5.9-1.2l9.3-9.3H62.2z"/>
	</g>
	<linearGradient id="SVGID_1_" gradientUnits="userSpaceOnUse" x1="78.1466" y1="60.6674" x2="80.9704" y2="44.1583">
		<stop  offset="0" style="stop-color:#000000"/>
		<stop  offset="1" style="stop-color:#629A6D"/>
	</linearGradient>
	<path fill="url(#SVGID_1_)" d="M88.8,41.5c-0.8-0.6-2.1-0.9-3.9-0.9c-1.8,0-3.4,0.5-4.7,1.6c-0.4,0.3-0.7,0.6-0.9,0.9
		c-1.6-2.3-1.8-6.8-1.8-6.8l-0.6-15.6H76V31c-1.4,10.1,2.3,16.9,2.8,17.8c0,0,0,0,0,0c0,0,0,0,0,0c0,0.1,0.1,0.1,0.1,0.1l0,0
		c0.4,0.7,0.9,1.4,1.6,2c0.7,0.7,1,1.1,1,1.1c1.7,1.8,2.5,3.3,2.5,4.6c0,1.3-0.4,2.3-1.3,3.2c-0.9,0.8-1.9,1.3-3.1,1.3
		c-0.8,0-1.5-0.2-2-0.6c-0.5-0.4-0.8-1-0.8-1.8s0.3-1.4,1-2c-0.3-0.6-0.9-0.9-1.7-0.9s-1.5,0.3-1.9,0.8c-0.4,0.6-0.7,1.2-0.7,1.9
		c0,1.2,0.6,2.2,1.7,2.8c1.1,0.6,2.6,0.9,4.3,0.9c2.2,0,4.1-0.6,5.7-1.9c1.6-1.3,2.4-2.8,2.4-4.6c0-1.7-0.7-3.4-2.2-4.8
		c-0.1-0.1-0.6-0.5-1.3-1.2s-1.3-1.2-1.6-1.5c-0.3-0.3-0.7-0.8-1-1.4c-0.4-0.6-0.5-1.1-0.5-1.6c0-0.9,0.4-1.7,1.1-2.4
		c0.7-0.7,1.7-1,2.8-1c0.7,0,1.2,0.2,1.7,0.5c0.5,0.3,0.7,0.7,0.7,1.2c0,0.5-0.2,0.9-0.6,1.3c-0.4,0.4-0.8,0.6-1.4,0.6
		c0,0.2-0.1,0.4-0.1,0.5c0,0.8,0.5,1.3,1.5,1.3c1,0,1.8-0.4,2.3-1.1s0.8-1.5,0.8-2.3S89.6,42.1,88.8,41.5z"/>
</g>
</svg>
