<?xml version="1.0" encoding="utf-8"?>
<!-- Generator: Adobe Illustrator 21.0.2, SVG Export Plug-In . SVG Version: 6.00 Build 0)  -->
<svg version="1.2" baseProfile="tiny" id="Layer_1" xmlns="http://www.w3.org/2000/svg" xmlns:xlink="http://www.w3.org/1999/xlink"
	 x="0px" y="0px" viewBox="0 0 18.3 33.2" overflow="scroll" xml:space="preserve">
<g>
	<path fill="#629A6D" d="M3.9,26.2c1,1.1,2.5,1.8,4.5,2l0-10.9c-1-0.2-2-0.5-3-0.8c-0.9-0.3-1.8-0.7-2.5-1.3
		c-0.7-0.6-1.3-1.2-1.7-2.1c-0.4-0.8-0.6-1.9-0.6-3.2c0-1.1,0.2-2.1,0.6-3c0.4-0.9,1-1.6,1.7-2.3c0.7-0.6,1.5-1.1,2.5-1.4
		c0.9-0.3,1.9-0.5,3-0.5l0-2.9l1.4,0l0,2.9c1.1,0,2.1,0.2,3,0.6s1.8,0.9,2.5,1.6c0.7,0.7,1.3,1.5,1.7,2.5c0.4,1,0.6,2.1,0.6,3.3
		l-2.3,0c0-1.8-0.5-3.3-1.5-4.4c-1-1.1-2.3-1.6-3.9-1.6l0,10.6c1.1,0.2,2.1,0.5,3.1,0.8c1,0.3,1.9,0.8,2.7,1.3
		c0.8,0.6,1.4,1.3,1.9,2.1c0.5,0.8,0.7,1.9,0.7,3.2c0,1.2-0.2,2.3-0.7,3.2c-0.5,0.9-1.1,1.7-1.9,2.3c-0.8,0.6-1.7,1.1-2.7,1.4
		s-2.1,0.5-3.1,0.5l0,3.1l-1.4,0l0-3.2c-2.9-0.3-4.9-1.1-6.3-2.5c-1.3-1.4-2-3.5-2.1-6.3l2.3,0C2.3,23.4,2.9,25,3.9,26.2z M6.3,5.1
		c-0.6,0.2-1.2,0.5-1.7,1c-0.5,0.4-0.9,1-1.2,1.7C3.1,8.5,3,9.3,3,10.3c0,0.9,0.1,1.6,0.5,2.1c0.3,0.5,0.7,1,1.2,1.3
		c0.5,0.3,1.1,0.6,1.7,0.8c0.6,0.2,1.3,0.4,2,0.6l0-10.2C7.7,4.8,7,4.9,6.3,5.1z M12.1,27.9c0.7-0.2,1.4-0.5,2-1
		c0.6-0.4,1-1,1.4-1.7c0.4-0.7,0.5-1.5,0.5-2.4c0-0.9-0.2-1.6-0.6-2.2c-0.4-0.6-0.9-1.1-1.4-1.5c-0.6-0.4-1.2-0.7-2-0.9
		c-0.7-0.2-1.5-0.5-2.2-0.6l0,10.6C10.6,28.2,11.3,28.1,12.1,27.9z"/>
</g>
</svg>
